<svg xmlns="http://www.w3.org/2000/svg" viewBox="0 0 512 512">
  <rect width="512" height="512" rx="64" fill="#4a7c59"/>
  <g fill="#fafaf8">
    <path d="M156 120c0-11 9-20 20-20s20 9 20 20v120c0 33-27 60-60 60v132c0 11-9 20-20 20s-20-9-20-20V300c-33 0-60-27-60-60V120c0-11 9-20 20-20s20 9 20 20v100c0 11 9 20 20 20s20-9 20-20V120c0-11 9-20 20-20s20 9 20 20v100c0 11 9 20 20 20s20-9 20-20V120z"/>
    <path d="M376 100c-66 0-120 54-120 120v32c0 22 18 40 40 40h40v140c0 11 9 20 20 20h40c11 0 20-9 20-20V120c0-11-9-20-20-20h-20zm-40 152v-32c0-33 27-60 60-60v92h-60z"/>
  </g>
</svg>
